<?xml version="1.0" standalone="no"?>
<!DOCTYPE svg PUBLIC "-//W3C//DTD SVG 20010904//EN"
 "http://www.w3.org/TR/2001/REC-SVG-20010904/DTD/svg10.dtd">
<svg version="1.0" xmlns="http://www.w3.org/2000/svg"
 width="420.000000pt" height="420.000000pt" viewBox="0 0 420.000000 420.000000"
 preserveAspectRatio="xMidYMid meet">
<metadata>
Created by potrace 1.14, written by Peter Selinger 2001-2017
</metadata>
<g transform="translate(0.000000,420.000000) scale(0.100000,-0.100000)"
fill="#000000" stroke="none">
<path d="M2050 3496 c-70 -24 -153 -65 -210 -101 -19 -13 -62 -31 -95 -40 -78
-22 -147 -57 -215 -109 -40 -31 -71 -46 -114 -54 -80 -16 -106 -34 -107 -75
-1 -58 -10 -88 -34 -127 -29 -46 -59 -112 -75 -165 -7 -22 -15 -44 -19 -50 -3
-5 -6 -17 -8 -25 -1 -8 -6 -23 -12 -35 -30 -61 -34 -109 -36 -430 -2 -256 0
-334 10 -350 19 -29 24 -115 7 -115 -8 0 -67 81 -87 121 -13 25 -19 24 -33 -6
-15 -32 -16 -181 -2 -190 7 -4 9 2 5 18 -8 31 13 47 30 23 7 -9 22 -56 34
-104 12 -48 33 -111 46 -139 l24 -53 118 0 c115 0 152 8 139 28 -3 5 13 3 37
-5 55 -19 229 -21 282 -4 56 19 102 56 136 109 16 25 29 41 29 35 0 -19 -39
-99 -60 -123 -18 -21 -19 -26 -6 -28 17 -4 66 47 93 96 10 18 25 32 36 32 16
0 18 5 14 28 -5 23 0 60 19 150 2 12 11 22 20 22 12 0 14 7 9 29 -5 26 -3 30
26 40 44 15 75 14 114 -5 38 -18 51 -40 34 -60 -13 -16 -4 -48 10 -39 6 3 15
-14 21 -37 6 -24 14 -52 17 -63 9 -33 73 -145 83 -145 6 0 10 -5 10 -11 0 -15
30 -38 49 -39 11 0 10 5 -4 20 -25 28 -3 27 61 -2 41 -18 66 -21 154 -20 58 1
120 6 139 11 26 8 36 7 48 -4 11 -12 42 -15 134 -15 l120 0 24 53 c13 28 34
91 46 139 12 48 27 95 34 104 21 29 35 7 28 -44 -3 -26 -3 -44 0 -41 10 8 18
77 18 147 -1 69 -29 146 -40 107 -8 -27 -82 -135 -92 -135 -15 0 -10 47 10
101 11 27 14 46 8 40 -9 -7 -10 38 -5 192 12 327 -3 461 -68 607 -33 74 -60
208 -46 222 4 4 25 14 47 21 22 8 41 20 43 28 3 17 -86 123 -143 170 l-40 33
45 -49 c25 -27 34 -40 20 -28 -76 65 -244 153 -293 153 -11 0 -43 11 -71 24
-30 14 -81 27 -123 31 l-72 7 25 55 c13 30 21 59 18 64 -7 11 -165 0 -178 -12
-6 -5 -17 -9 -26 -9 -32 0 -102 -41 -96 -56 3 -8 4 -14 3 -14 -1 0 -39 -7 -85
-15 -72 -12 -167 -13 -179 -1 -6 6 153 83 227 111 36 13 58 24 50 24 -8 0 -44
-10 -80 -23z m343 -166 c130 -36 194 -67 254 -123 68 -62 86 -105 91 -214 4
-75 1 -98 -12 -118 -9 -14 -21 -23 -25 -21 -4 3 -20 39 -35 80 -38 105 -82
162 -163 212 -126 79 -175 107 -257 143 -92 42 -126 62 -126 75 0 17 165 -3
273 -34z m-378 15 c139 -36 301 -142 381 -248 59 -78 96 -170 102 -248 4 -59
2 -69 -11 -69 -28 0 -116 41 -242 113 -96 55 -298 137 -415 169 -70 19 -110
23 -227 23 -95 0 -143 4 -143 11 0 39 132 168 214 211 103 53 228 67 341 38z
m706 -91 c92 -46 163 -140 184 -244 l8 -35 -34 26 c-19 14 -52 56 -74 92 -52
86 -85 120 -167 174 -38 24 -68 46 -68 48 0 5 98 -34 151 -61z m-1308 -90 c14
-14 -16 -63 -45 -73 -17 -6 -32 -11 -34 -11 -10 0 11 67 24 78 17 13 45 16 55
6z m-102 -282 c-18 -33 -23 -129 -11 -188 10 -45 9 -68 -3 -122 -9 -37 -23
-107 -33 -157 -9 -49 -21 -94 -25 -99 -19 -21 -21 31 -5 132 9 59 16 153 16
209 0 101 4 117 53 243 5 14 11 20 14 13 2 -7 0 -21 -6 -31z m573 -143 c78 -5
166 -17 196 -25 129 -36 335 -130 383 -174 47 -45 78 -17 76 68 -2 58 4 82 20
82 4 0 40 -31 79 -70 39 -38 80 -70 90 -70 24 0 47 26 56 63 7 30 18 34 36 12
10 -11 8 -42 -9 -147 -23 -147 -29 -314 -12 -346 6 -11 11 -24 11 -29 0 -4
-55 -6 -122 -4 -91 2 -133 8 -166 22 -108 47 -242 -4 -271 -102 l-12 -40 -34
30 c-61 53 -149 53 -209 1 l-33 -29 -13 39 c-16 48 -51 82 -108 104 -56 21
-99 20 -164 -3 -38 -14 -86 -20 -170 -23 -65 -2 -118 1 -118 5 0 5 5 18 11 29
17 31 11 206 -11 342 -11 66 -20 131 -20 143 0 34 71 95 132 115 63 20 183 22
382 7z m1094 -371 c-4 -49 -28 -66 -28 -20 0 37 9 62 22 62 5 0 8 -19 6 -42z
m-1478 -319 c-52 -4 -108 -10 -123 -12 -34 -4 -22 9 13 16 14 2 66 4 115 4
l90 0 -95 -8z m1067 5 c-3 -3 -12 -4 -19 -1 -8 3 -5 6 6 6 11 1 17 -2 13 -5z
m238 -4 c17 -5 -21 -6 -85 -3 -63 3 -117 7 -119 9 -8 7 174 2 204 -6z m-1142
-47 c-7 -2 -21 -2 -30 0 -10 3 -4 5 12 5 17 0 24 -2 18 -5z m515 -23 c43 -31
59 -60 23 -40 -27 14 -154 13 -186 -2 -59 -27 -32 26 28 56 49 24 89 20 135
-14z m395 23 c-7 -2 -19 -2 -25 0 -7 3 -2 5 12 5 14 0 19 -2 13 -5z m-988 -22
c-43 -26 -61 -50 -74 -95 -15 -56 2 -115 45 -157 33 -32 40 -34 102 -34 79 0
111 18 142 81 35 70 21 140 -38 193 l-27 24 30 -18 c17 -10 42 -29 57 -42 39
-37 93 -173 68 -173 -6 0 -9 -4 -6 -9 9 -14 -51 -124 -86 -157 -38 -36 -114
-64 -172 -64 -170 0 -305 72 -297 158 0 7 5 11 9 8 5 -3 19 2 31 10 19 14 21
21 15 65 -8 56 3 63 36 22 15 -20 18 -22 11 -6 -16 32 -13 59 8 101 31 61 99
111 151 112 25 0 25 0 -5 -19z m1090 -4 c47 -26 105 -107 105 -146 0 -15 -7
-38 -16 -51 -9 -15 -4 -12 13 8 15 18 32 32 37 32 5 0 6 -21 2 -46 -7 -51 4
-74 35 -74 11 0 19 -2 19 -4 0 -2 3 -11 6 -20 3 -9 -11 -32 -37 -60 -31 -34
-55 -50 -93 -61 -141 -40 -266 -28 -336 32 -50 43 -100 138 -100 190 1 72 53
159 115 190 l30 16 -28 -26 c-51 -49 -61 -113 -26 -183 26 -55 72 -84 133 -84
110 0 182 91 155 195 -12 45 -31 70 -74 96 -30 19 -30 19 -5 19 14 0 43 -10
65 -23z m-1057 -46 c20 -12 11 -56 -12 -56 -27 0 -43 29 -27 49 15 18 21 19
39 7z m550 -5 c3 -3 -24 -6 -59 -6 -42 0 -59 3 -50 9 15 10 99 7 109 -3z m336
-9 c8 -12 7 -21 -6 -33 -22 -22 -48 -11 -48 20 0 37 34 45 54 13z m-134 -358
c0 -6 -4 -7 -10 -4 -5 3 -10 11 -10 16 0 6 5 7 10 4 6 -3 10 -11 10 -16z"/>
<path d="M2060 1970 c-10 -7 5 -10 50 -9 45 0 59 3 45 9 -27 12 -77 12 -95 0z"/>
<path d="M2080 1864 c0 -9 5 -14 12 -12 18 6 21 28 4 28 -9 0 -16 -7 -16 -16z"/>
<path d="M2200 1744 c0 -8 5 -12 10 -9 6 3 10 10 10 16 0 5 -4 9 -10 9 -5 0
-10 -7 -10 -16z"/>
<path d="M1031 1654 c0 -11 3 -14 6 -6 3 7 2 16 -1 19 -3 4 -6 -2 -5 -13z"/>
<path d="M2060 1644 c0 -9 5 -14 12 -12 18 6 21 28 4 28 -9 0 -16 -7 -16 -16z"/>
<path d="M2195 1620 c-8 -13 -1 -24 14 -19 6 3 7 10 2 18 -6 10 -10 10 -16 1z"/>
<path d="M1051 1565 c0 -11 6 -33 14 -50 17 -39 18 -11 0 35 -9 23 -14 28 -14
15z"/>
<path d="M3131 1539 c-7 -23 -10 -44 -7 -47 3 -3 7 -2 7 1 3 14 7 27 9 30 4 5
11 57 7 57 -2 0 -9 -18 -16 -41z"/>
<path d="M1956 1538 c-19 -27 -21 -48 -3 -48 21 0 35 14 42 43 9 34 -16 38
-39 5z"/>
<path d="M2205 1533 c7 -29 21 -43 43 -43 17 0 15 21 -4 48 -23 33 -48 29 -39
-5z"/>
<path d="M1775 1500 c-3 -5 3 -10 15 -10 12 0 18 5 15 10 -3 6 -10 10 -15 10
-5 0 -12 -4 -15 -10z"/>
<path d="M866 1411 c-3 -4 -1 -91 4 -192 5 -101 14 -284 20 -405 l11 -222 -24
-48 c-61 -122 -133 -355 -152 -496 l-6 -48 1361 0 1360 0 -5 23 c-3 12 -14 65
-25 117 -27 123 -86 335 -106 382 -15 32 -15 63 -5 280 6 133 16 321 22 416 6
95 8 180 4 190 -12 32 -35 -16 -35 -76 0 -61 -38 -421 -46 -434 -8 -12 -26 2
-21 16 3 7 -1 13 -9 13 -9 0 -13 -6 -10 -14 3 -8 2 -11 -3 -8 -5 3 -12 1 -16
-5 -4 -6 -11 -8 -16 -4 -6 3 -3 16 7 32 l17 26 -28 -22 c-23 -18 -31 -20 -43
-10 -13 11 -14 11 -7 -2 8 -13 7 -13 -11 0 -10 8 -22 18 -25 23 -3 4 -27 9
-54 12 -26 3 -54 10 -62 16 -16 14 -17 -2 0 -20 13 -14 5 -11 -51 18 -13 7
-33 9 -44 5 -13 -4 -18 -2 -14 4 3 6 2 13 -4 17 -6 3 -10 -4 -11 -17 -1 -23
-1 -23 -9 2 -4 14 -9 18 -10 10 -1 -11 -4 -9 -10 5 -5 11 -9 16 -9 10 -1 -5
-24 -10 -51 -10 -48 0 -64 8 -37 18 7 3 6 6 -5 6 -9 1 -20 -4 -23 -9 -4 -6
-11 -8 -16 -4 -5 3 -7 10 -4 15 4 5 -3 9 -14 9 -12 0 -21 4 -21 8 0 12 -39 12
-46 0 -4 -7 -13 -2 -24 12 -15 20 -18 21 -33 6 -23 -24 -40 -20 -32 7 6 17 5
20 -5 10 -10 -9 -18 -9 -33 -2 -14 8 -18 8 -13 0 10 -15 -5 -13 -26 3 -10 7
-14 17 -10 22 4 4 -1 2 -11 -6 -14 -10 -20 -11 -26 -2 -3 6 -16 10 -28 9 -12
0 -20 -5 -17 -9 3 -4 12 -4 22 -1 15 6 15 5 -1 -11 -10 -10 -19 -17 -21 -15
-1 2 -12 20 -24 39 -12 19 -22 29 -22 21 0 -7 -6 -11 -14 -8 -11 4 -13 1 -9
-11 6 -14 5 -15 -9 -2 -9 8 -14 18 -11 23 7 11 -12 8 -43 -7 -15 -8 -32 -12
-38 -9 -5 4 -1 10 10 14 15 6 12 8 -11 7 -17 -1 -36 1 -43 6 -7 4 -12 2 -12
-5 0 -7 -3 -10 -6 -6 -4 3 -4 14 0 23 5 13 9 14 21 4 9 -7 15 -8 15 -2 0 14
-28 23 -36 11 -3 -6 -22 -9 -40 -7 -19 2 -34 0 -34 -6 0 -5 -6 -1 -14 10 -11
14 -11 21 -3 26 8 5 6 8 -5 8 -10 0 -18 -4 -18 -10 0 -5 -5 -10 -11 -10 -6 0
-8 9 -3 22 6 20 5 21 -10 9 -9 -7 -16 -10 -16 -6 0 4 -7 2 -15 -5 -13 -11 -14
-10 -10 3 4 8 2 18 -4 22 -7 3 -8 0 -5 -9 5 -13 -3 -15 -48 -12 -33 2 -52 7
-51 14 2 7 -8 10 -27 8 -32 -4 -37 3 -18 22 7 7 9 12 5 12 -3 0 -15 -10 -27
-22 -11 -12 -23 -18 -27 -15 -3 4 -1 7 5 7 7 0 12 5 12 10 0 6 -11 8 -27 4
-27 -6 -27 -6 -8 9 20 16 20 16 -2 10 -13 -3 -23 -10 -23 -16 0 -6 -6 -3 -13
7 -12 16 -15 17 -20 3 -4 -10 -13 -14 -27 -10 -12 3 -19 11 -17 18 3 6 -1 12
-9 12 -8 0 -14 -7 -15 -16 0 -12 -3 -11 -9 4 -7 17 -9 17 -9 3 -1 -28 -21 -21
-21 7 0 21 -2 24 -14 13 -7 -7 -11 -20 -8 -28 3 -9 -5 -6 -20 8 -20 18 -27 20
-32 10 -3 -7 -3 -3 0 10 4 16 1 22 -11 22 -9 0 -13 -4 -10 -10 3 -5 2 -10 -4
-10 -5 0 -15 8 -20 18 -6 9 -11 12 -11 6 0 -7 -9 -14 -19 -17 -15 -4 -18 -1
-13 12 5 14 3 14 -11 3 -14 -12 -19 -12 -32 2 -9 9 -21 16 -26 16 -6 0 -3 -7
6 -16 9 -9 13 -19 10 -22 -3 -4 -9 -2 -13 4 -10 17 -52 28 -52 14 0 -6 -5 -8
-11 -4 -8 5 -6 10 5 16 9 5 16 14 16 20 0 7 -5 7 -14 -1 -10 -9 -16 -9 -21 -1
-4 6 -23 10 -43 8 -27 -2 -37 2 -43 17 -8 20 -8 20 -8 0 -1 -17 -3 -17 -11 -5
-9 13 -10 13 -10 0 0 -12 -2 -12 -8 -2 -5 8 -16 10 -27 6 -13 -5 -16 -4 -11 4
5 8 2 10 -9 6 -8 -4 -23 0 -32 7 -12 10 -15 10 -9 2 4 -8 1 -13 -9 -13 -9 0
-14 4 -11 9 3 5 -8 14 -24 20 -18 6 -30 6 -30 0 0 -5 -5 -9 -11 -9 -5 0 -8 4
-4 9 3 6 -3 15 -14 20 -24 13 -38 14 -45 2z m811 -197 c-3 -3 -12 -4 -19 -1
-8 3 -5 6 6 6 11 1 17 -2 13 -5z m186 -39 c-3 -9 -8 -14 -10 -11 -3 3 -2 9 2
15 9 16 15 13 8 -4z m41 -4 c3 -5 -1 -11 -9 -14 -9 -4 -12 -1 -8 9 6 16 10 17
17 5z m36 -16 c-7 -8 -17 -15 -23 -15 -6 0 -2 7 9 15 25 19 30 19 14 0z m20
-19 c0 -3 -4 -8 -10 -11 -5 -3 -10 -1 -10 4 0 6 5 11 10 11 6 0 10 -2 10 -4z
m659 -110 c9 -11 6 -13 -14 -13 -25 0 -31 7 -18 20 10 10 19 8 32 -7z m471
-112 c0 -2 -7 -4 -15 -4 -8 0 -15 4 -15 10 0 5 7 7 15 4 8 -4 15 -8 15 -10z
m-910 1 c0 -28 -50 -85 -74 -85 -15 0 -4 46 16 67 19 20 58 32 58 18z m45
-105 c14 -15 13 -18 -5 -35 -27 -25 -26 -70 4 -99 l23 -24 -19 -34 c-29 -50
-52 -62 -93 -47 -27 10 -40 10 -61 0 -22 -10 -31 -9 -50 4 -48 31 -80 126 -63
187 15 56 35 65 149 65 81 1 102 -2 115 -17z"/>
<path d="M1480 1290 c0 -5 5 -10 11 -10 5 0 7 5 4 10 -3 6 -8 10 -11 10 -2 0
-4 -4 -4 -10z"/>
</g>
</svg>
